<?xml version="1.0" encoding="UTF-8"?>
<svg id="Layer_2" data-name="Layer 2" xmlns="http://www.w3.org/2000/svg" viewBox="0 0 8350.62 1030.31">
  <defs>
    <style>
      .cls-1 {
        fill: #142F4D;
      }

      .cls-2 {
        fill: #1E4164;
      }
    </style>
  </defs>
  <g id="Dimensions">
    <g>
      <g>
        <polygon class="cls-2" points="8019.35 757.23 7581.76 988.82 7619 1027.23 7939.63 1027.23 8019.35 757.23"/>
        <polygon class="cls-2" points="7651.59 273.08 8089.18 41.49 8051.93 3.08 7731.31 3.08 7651.59 273.08"/>
        <polygon class="cls-2" points="8136.66 556.3 7991 1029.49 8044.49 1030.31 8271.21 803.59 8136.66 556.3"/>
        <polygon class="cls-2" points="7534.27 474.01 7679.93 .82 7626.44 0 7399.72 226.72 7534.27 474.01"/>
        <polygon class="cls-2" points="8077.54 331.27 8309.13 768.86 8347.54 731.62 8347.54 410.99 8077.54 331.27"/>
        <polygon class="cls-2" points="7593.4 699.04 7361.8 261.45 7323.39 298.69 7323.39 619.32 7593.4 699.04"/>
        <polygon class="cls-2" points="7876.61 213.96 8349.8 359.62 8350.62 306.13 8123.9 79.41 7876.61 213.96"/>
        <polygon class="cls-2" points="7794.32 816.35 7321.13 670.69 7320.31 724.18 7547.03 950.9 7794.32 816.35"/>
      </g>
      <g>
        <path class="cls-1" d="M560.97,515.88v285.7c0,6.97-2.23,12.67-6.65,17.09-4.43,4.43-9.82,6.64-16.13,6.64h-90.17c-6.97,0-12.67-2.21-17.09-6.64-4.43-4.42-6.65-9.8-6.65-16.14v-281.9c0-40.49-9.81-71.5-29.42-93.02-19.62-21.51-51.25-32.27-94.91-32.27h-62.64c-2.47,10.58-4.69,20.86-6.66,30.84-3.79,19.31-6.33,38.61-7.59,57.91-1.28,19.31-1.9,41.28-1.9,65.96l5.7,251.53c0,6.97-2.23,12.67-6.65,17.09s-10.13,6.64-17.08,6.64l-180.35-.95c-6.33,0-11.71-2.2-16.13-6.64-4.44-4.42-6.65-10.11-6.65-17.08v-59.8c0-6.96,2.21-12.66,6.65-17.09,4.42-4.42,9.8-6.64,16.13-6.64l75.94.95v-166.11c0-22.14.47-43.03,1.42-62.65.95-19.6,3.16-39.53,6.65-59.79,1.88-11.01,4.29-22.4,7.21-34.17h-54.2c-6.97,0-12.67-2.21-17.08-6.65-4.44-4.42-6.65-10.11-6.65-17.09v-64.54c0-6.96,2.21-12.65,6.65-17.08,4.41-4.43,10.11-6.65,17.08-6.65h245.84c56.31,0,103.46,8.23,141.43,24.68,37.96,16.46,66.44,41.76,85.42,75.93,18.99,34.18,28.48,78.17,28.48,131.94Z"/>
        <path class="cls-1" d="M697.65,602.25c-6.97,0-12.67-2.21-17.09-6.64-4.43-4.42-6.64-10.12-6.64-17.09v-271.46c0-6.96,2.21-12.65,6.64-17.09,4.42-4.42,10.12-6.64,17.09-6.64h94.92c6.32,0,11.7,2.22,16.13,6.64,4.42,4.43,6.64,10.13,6.64,17.09v271.46c0,6.97-2.22,12.67-6.64,17.09-4.43,4.43-9.81,6.64-16.13,6.64h-94.92Z"/>
        <path class="cls-1" d="M1223.49,825.31c-6.97,0-12.67-2.21-17.08-6.64-4.44-4.42-6.64-9.8-6.64-16.14v-281.91c0-40.49-9.97-71.5-29.9-93.02-19.93-21.51-51.42-32.27-94.44-32.27h-137.63c-6.33,0-11.71-2.21-16.14-6.64-4.43-4.42-6.64-10.12-6.64-17.09v-64.54c0-6.96,2.21-12.65,6.64-17.09,4.42-4.42,9.81-6.64,16.14-6.64h143.33c56.31,0,103.46,7.92,141.43,23.73,37.97,15.82,66.44,40.67,85.43,74.51,18.98,33.86,28.48,78.31,28.48,133.36v286.65c0,6.97-2.22,12.67-6.64,17.09-4.44,4.43-9.82,6.64-16.14,6.64h-90.17Z"/>
        <path class="cls-1" d="M1922.09,307.06v275.27c0,39.86-9.35,76.09-28,108.67-18.68,32.6-45.57,60.13-80.69,82.58-35.12,22.47-77.35,38.77-126.71,48.89l-231.6,56c-6.97,1.26-13.14-.16-18.51-4.27-5.38-4.13-8.07-9.35-8.07-15.66v-66.45c0-6.31,1.74-11.86,5.22-16.61,3.47-4.75,8.38-8.07,14.71-9.96l110.59-29.56-115.33-414.66c-1.28-5.06-2.37-8.86-3.32-11.39-.95-2.52-1.43-5.06-1.43-7.59,0-5.06,1.9-9.5,5.7-13.29,3.79-3.8,8.22-5.7,13.29-5.7h99.66c12.01,0,19.29,4.75,21.83,14.24l101.75,404.59c22.69-8.11,40.99-17.84,54.87-29.19,18.98-15.5,31.94-34.32,38.91-56.48,6.96-22.14,10.44-47.45,10.44-75.93v-234.45c0-6.32,2.21-11.7,6.65-16.13,4.41-4.43,9.8-6.65,16.13-6.65h90.17c6.96,0,12.66,2.22,17.09,6.65,4.42,4.43,6.65,10.12,6.65,17.08Z"/>
        <path class="cls-1" d="M2058.77,602.25c-6.97,0-12.67-2.21-17.09-6.64-4.43-4.42-6.64-10.12-6.64-17.09v-271.46c0-6.96,2.21-12.65,6.64-17.09,4.42-4.42,10.12-6.64,17.09-6.64h94.92c6.32,0,11.7,2.22,16.13,6.64,4.42,4.43,6.64,10.13,6.64,17.09v271.46c0,6.97-2.22,12.67-6.64,17.09-4.43,4.43-9.81,6.64-16.13,6.64h-94.92Z"/>
        <path class="cls-1" d="M2522.92,601.31c-6.34,0-11.72-2.21-16.14-6.64-4.43-4.42-6.64-9.81-6.64-16.14v-75.93c0-6.32,2.21-11.7,6.64-16.14,4.42-4.42,9.8-6.64,16.14-6.64h295.2c6.32,0,11.7,2.22,16.14,6.64,4.42,4.43,6.64,9.82,6.64,16.14v75.93c0,6.33-2.22,11.71-6.64,16.14-4.44,4.43-9.82,6.64-16.14,6.64h-295.2Z"/>
        <path class="cls-1" d="M3437.93,825.31c-6.97,0-12.67-2.21-17.08-6.64-4.44-4.42-6.64-9.8-6.64-16.14v-281.91c0-40.49-9.97-71.5-29.9-93.02-19.93-21.51-51.42-32.27-94.44-32.27h-137.63c-6.33,0-11.71-2.21-16.14-6.64-4.43-4.42-6.64-10.12-6.64-17.09v-64.54c0-6.96,2.21-12.65,6.64-17.09,4.42-4.42,9.81-6.64,16.14-6.64h143.33c56.31,0,103.46,7.92,141.43,23.73,37.97,15.82,66.44,40.67,85.43,74.51,18.98,33.86,28.48,78.31,28.48,133.36v286.65c0,6.97-2.22,12.67-6.64,17.09-4.44,4.43-9.82,6.64-16.14,6.64h-90.17Z"/>
        <path class="cls-1" d="M3692.3,825.31c-6.97,0-12.67-2.21-17.09-6.64-4.43-4.42-6.64-10.12-6.64-17.09v-494.52c0-6.96,2.21-12.65,6.64-17.09,4.42-4.42,10.12-6.64,17.09-6.64h94.92c6.32,0,11.7,2.22,16.14,6.64,4.42,4.43,6.64,10.13,6.64,17.09v494.52c0,6.97-2.22,12.67-6.64,17.09-4.43,4.43-9.82,6.64-16.14,6.64h-94.92Z"/>
        <path class="cls-1" d="M4286.49,818.67c-5.07,4.43-10.77,6.64-17.09,6.64h-94.92c-6.96,0-12.49-2.21-16.6-6.64-4.13-4.42-6.5-10.12-7.12-17.09l-16.12-80.88c-1.25,1.67-2.53,3.32-3.82,4.95-17.08,21.52-36.7,38.91-58.84,52.2-24.68,15.19-47.46,27.05-68.35,35.6-20.88,8.54-42.4,15.02-64.54,19.46-6.33.62-11.72,0-16.13-1.9-4.44-1.9-6.65-6.01-6.65-12.34v-85.43c0-10.75,6.65-18.65,19.94-23.72,4.41-1.91,12.81-4.75,25.15-8.55,12.34-3.8,25.77-8.22,40.34-13.29,14.55-5.05,26.89-10.11,37.01-15.19,14.55-8.21,28.63-18.81,42.24-31.79,11.58-11.04,21.79-22.89,30.62-35.54l-17.8-89.28c-5.7-27.2-12.03-49.67-18.99-67.39-6.97-17.71-16.46-31-28.47-39.86-12.03-8.86-28.8-13.29-50.31-13.29h-33.22c-6.97,0-12.67-2.21-17.08-6.65-4.44-4.42-6.65-10.11-6.65-17.09v-70.24c0-6.31,2.21-11.69,6.65-16.13,4.41-4.42,10.11-6.64,17.08-6.64h36.07c49.98,0,90.32,8.06,121.02,24.2,30.68,16.14,54.89,41.29,72.61,75.46,17.71,34.17,31.95,78.16,42.71,131.93l56.95,291.4c1.26,6.97-.63,12.67-5.69,17.09Z"/>
        <path class="cls-1" d="M4893.01,514.93v286.65c0,6.97-2.22,12.67-6.64,17.09-4.44,4.43-10.13,6.64-17.09,6.64h-253.43c-6.97,0-12.66-2.21-17.08-6.64-4.44-4.42-6.65-10.12-6.65-17.09v-64.54c0-6.95,2.21-12.65,6.65-17.09,4.42-4.41,10.11-6.64,17.08-6.64h140.48v-190.78c0-25.95-4.27-48.09-12.81-66.44-8.55-18.35-20.26-32.28-35.12-41.77-14.88-9.49-31.8-14.24-50.78-14.24h-81.9l-78.52,401.5c-.63,6.34-3.32,11.87-8.06,16.61-4.75,4.75-10.29,7.12-16.61,7.12h-88.28c-6.33,0-11.71-2.37-16.13-7.12-4.44-4.74-6.02-10.27-4.75-16.61l87.86-401.5h-58.43c-6.98,0-12.67-2.21-17.09-6.64-4.44-4.42-6.64-9.81-6.64-16.14v-70.24c0-6.96,2.2-12.65,6.64-17.08,4.42-4.43,10.11-6.65,17.09-6.65h283.8c41.76,0,78.93,8.39,111.53,25.15,32.58,16.78,58.21,42.41,76.88,76.89,18.66,34.5,28,77.68,28,129.56Z"/>
        <path class="cls-1" d="M5399.87,524.42c0,43.04-6.64,81.32-19.93,114.86-13.29,33.54-31.32,62.49-54.1,86.84-22.78,24.37-48.26,44.61-76.41,60.75-28.17,16.14-57.75,28.64-88.75,37.49l-38.92,12.34c-6.33,1.26-12.02-.64-17.08-5.69-5.07-5.07-7.59-10.76-7.59-17.09v-79.73c0-5.69,2.04-11.22,6.17-16.61,4.1-5.37,9.64-9.33,16.61-11.86l32.27-13.29c19.6-8.22,37.49-18.66,53.63-31.32,16.14-12.66,29.1-29.74,38.91-51.26,9.81-21.5,14.72-49.36,14.72-83.53,0-30.37-3.65-54.89-10.92-73.56-7.28-18.65-19.46-32.11-36.54-40.34-17.09-8.22-40.82-12.34-71.19-12.34h-141.43c-6.97,0-12.66-2.21-17.09-6.64-4.43-4.42-6.64-9.81-6.64-16.14v-202.18c0-6.95,2.21-12.64,6.64-17.08,4.43-4.42,10.12-6.64,17.09-6.64h82.58c6.32,0,11.7,2.22,16.14,6.64,4.41,4.44,6.64,10.13,6.64,17.08v108.21h62.65c56.95,0,102.34,8.87,136.2,26.58,33.85,17.72,58.37,44.46,73.57,80.2,15.18,35.76,22.77,80.54,22.77,134.31Z"/>
        <path class="cls-1" d="M5986.47,805.38c0,5.07-2.06,9.66-6.17,13.76-4.12,4.13-8.71,6.17-13.76,6.17h-93.97c-9.49,0-16.61-2.37-21.36-7.12-4.74-4.74-8.39-8.38-10.91-10.91l-181.57-259.53c-12.86,10.29-22.73,21.82-29.62,34.58-8.55,15.82-14.1,31.79-16.62,47.93-2.53,16.13-3.79,31.17-3.79,45.08v125.3c0,7.59-2.23,13.61-6.65,18.03-4.43,4.43-9.82,6.64-16.14,6.64h-75.93c-6.33,0-11.71-2.37-16.14-7.12-4.43-4.74-6.64-10.58-6.64-17.55v-125.3c0-33.53,3-63.74,9.02-90.64,6-26.89,17.23-51.74,33.7-74.52,14.58-20.2,35.14-39.65,61.69-58.36l-93.97-134.32c-3.17-4.42-4.74-9.16-4.74-14.23s1.9-9.64,5.69-13.77c3.8-4.11,8.54-6.17,14.24-6.17h90.17c9.49,0,16.45,2.37,20.88,7.12,4.42,4.75,7.91,8.71,10.44,11.87l167.4,236.18c13.4-8.34,23.41-17.15,30.04-26.42,9.49-13.28,15.33-27.05,17.55-41.28,2.21-14.25,3.33-28.32,3.33-42.24v-120.55c0-7.59,2.21-13.6,6.64-18.03,4.42-4.43,9.8-6.65,16.14-6.65h80.67c6.32,0,11.71,2.37,16.14,7.12,4.42,4.75,6.64,10.61,6.64,17.56v124.34c0,25.96-3.32,51.26-9.96,75.94-6.65,24.67-19.31,48.41-37.97,71.19-14.99,18.28-36,35.76-63.02,52.42l112.86,159.24c2.52,3.18,4.1,5.86,4.74,8.07.62,2.23.95,4.27.95,6.17Z"/>
        <path class="cls-1" d="M6686.01,524.42c0,43.04-6.64,81.32-19.93,114.86-13.29,33.54-31.32,62.49-54.1,86.84-22.79,24.37-48.27,44.61-76.41,60.75-28.17,16.14-57.76,28.64-88.75,37.49l-38.92,12.34c-6.33,1.26-12.02-.64-17.08-5.69-5.08-5.07-7.6-10.76-7.6-17.09v-79.73c0-5.69,2.05-11.22,6.17-16.61,4.11-5.37,9.64-9.33,16.61-11.86l32.28-13.29c19.6-8.22,37.49-18.66,53.63-31.32,16.13-12.66,29.09-29.74,38.91-51.26,9.8-21.5,14.71-49.36,14.71-83.53,0-30.37-3.65-54.89-10.91-73.56-7.29-18.65-19.46-32.11-36.55-40.34-17.08-8.22-40.81-12.34-71.19-12.34h-141.42c-6.97,0-12.67-2.21-17.09-6.64-4.43-4.42-6.64-9.81-6.64-16.14v-202.18c0-6.95,2.21-12.64,6.64-17.08,4.42-4.42,10.12-6.64,17.09-6.64h82.58c6.32,0,11.7,2.22,16.13,6.64,4.42,4.44,6.65,10.13,6.65,17.08v108.21h62.64c56.95,0,102.35,8.87,136.21,26.58,33.84,17.72,58.37,44.46,73.56,80.2,15.19,35.76,22.78,80.54,22.78,134.31Z"/>
        <path class="cls-1" d="M7138.77,818.67c-5.07,4.43-10.77,6.64-17.09,6.64h-94.91c-6.97,0-12.5-2.21-16.61-6.64-4.12-4.42-6.5-10.12-7.12-17.09l-16.12-80.88c-1.25,1.67-2.53,3.32-3.82,4.95-17.08,21.52-36.7,38.91-58.84,52.2-24.68,15.19-47.46,27.05-68.35,35.6-20.88,8.54-42.4,15.02-64.54,19.46-6.33.62-11.72,0-16.13-1.9-4.44-1.9-6.65-6.01-6.65-12.34v-85.43c0-10.75,6.65-18.65,19.94-23.72,4.41-1.91,12.81-4.75,25.15-8.55,12.34-3.8,25.77-8.22,40.34-13.29,14.55-5.05,26.89-10.11,37.01-15.19,14.55-8.21,28.63-18.81,42.24-31.79,11.58-11.04,21.79-22.89,30.62-35.54l-17.8-89.28c-5.7-27.2-12.03-49.67-18.98-67.39-6.98-17.71-16.47-31-28.48-39.86-12.03-8.86-28.8-13.29-50.31-13.29h-33.22c-6.97,0-12.67-2.21-17.08-6.65-4.44-4.42-6.65-10.11-6.65-17.09v-70.24c0-6.31,2.21-11.69,6.65-16.13,4.41-4.42,10.11-6.64,17.08-6.64h36.07c49.98,0,90.32,8.06,121.02,24.2,30.68,16.14,54.89,41.29,72.61,75.46,17.71,34.17,31.95,78.16,42.71,131.93l56.95,291.4c1.26,6.97-.63,12.67-5.69,17.09Z"/>
      </g>
    </g>
  </g>
</svg>
