<?xml version="1.0" encoding="UTF-8"?>
<svg id="Layer_1" data-name="Layer 1" xmlns="http://www.w3.org/2000/svg" viewBox="0 0 415.51 136.64">
  <defs>
    <style>
      .cls-1 {
        fill: #4a0129;
        stroke-width: 0px;
      }
    </style>
  </defs>
  <g>
    <path class="cls-1" d="M394.44,15.09c0,12.1-2.62,22.59-7.38,29.54-4.85,7.08-11.73,10.52-21.03,10.52-18.51,0-39.69-17.17-65.82-40.06h-28.49c2.68,2.35,5.32,4.68,7.91,6.96,32.9,29.01,58.89,51.92,86.4,51.92,15.53,0,28.17-6.47,36.56-18.7,6.98-10.19,10.68-24.09,10.68-40.17h-18.82Z"/>
    <path class="cls-1" d="M292.79,136.37c0-12.1,2.62-22.59,7.38-29.54,4.85-7.08,11.73-10.52,21.03-10.52,18.51,0,39.69,17.17,65.82,40.06h28.49c-2.68-2.35-5.32-4.68-7.91-6.96-32.9-29.01-58.89-51.92-86.4-51.92-15.53,0-28.17,6.47-36.56,18.7-6.98,10.19-10.68,24.09-10.68,40.17h18.82Z"/>
  </g>
  <g>
    <path class="cls-1" d="M32.56,113.28v14.59h-6.24v-14.59h6.24Z"/>
    <path class="cls-1" d="M60.59,124.66c0,7.08-5.19,11.81-12.61,11.81s-12.57-4.72-12.57-11.81,5.23-11.85,12.57-11.85,12.61,4.76,12.61,11.85ZM41.66,124.66c0,3.71,2.66,6.16,6.33,6.16s6.37-2.45,6.37-6.16-2.66-6.11-6.37-6.11-6.33,2.4-6.33,6.11Z"/>
    <path class="cls-1" d="M64.21,113.28h9.74v22.94h-10.54v-5.73h4.34v-11.43h-3.54v-5.78Z"/>
    <path class="cls-1" d="M78.46,113.28h9.74v22.94h-10.54v-5.73h4.34v-11.43h-3.54v-5.78Z"/>
    <path class="cls-1" d="M98.64,113.28v14.59h-6.24v-14.59h6.24Z"/>
    <path class="cls-1" d="M103.57,135.59v-5.78c2.66.89,6.45,1.1,8.1,1.1,4.43,0,7.59-2.53,7.59-6.75,0-3.67-2.87-5.69-6.07-5.69h-.08c-2.78,0-5.1.84-5.1,2.74.04,1.35,1.22,2.19,3.42,2.19v4.39c-5.57.55-9.78-2.32-9.78-6.75,0-5.27,4.85-8.35,11.47-8.35h.3c6.83,0,12.1,4.22,12.1,11.47,0,7.88-5.69,12.48-13.83,12.48-1.56,0-5.35-.13-8.1-1.05Z"/>
    <g>
      <path class="cls-1" d="M183.93,124.16v-10.88h6.28v10.88c0,4.26,2.36,6.7,5.44,6.7,3.25,0,5.69-2.45,5.69-6.7,0-2.78-.55-5.1-3.46-5.1h-3.29v-5.78h3.8c6.24,0,9.23,4.81,9.23,10.88,0,7.55-5.14,12.44-11.97,12.44s-11.72-4.89-11.72-12.44Z"/>
      <path class="cls-1" d="M240.49,130.48h3.2v5.73h-22.56v-5.73h13.16v-6.62c0-3.42-1.22-4.81-4.64-4.81h-7.93v-5.78h8.98c6.83,0,9.78,3.04,9.78,10.29v6.92Z"/>
      <rect class="cls-1" x="173.61" y="113.28" width="6.24" height="22.94"/>
      <rect class="cls-1" x="211.4" y="113.28" width="6.24" height="14.58"/>
      <path class="cls-1" d="M166.44,115.56c-1.69-1.48-4.34-2.28-7.38-2.28h-13.16v22.94h6.24v-17.16h6.11c3.29,0,4.76,1.56,4.76,4.81v12.35h6.28v-12.35c0-3.67-.76-6.54-2.87-8.31Z"/>
    </g>
    <rect class="cls-1" x="128.45" y="113.28" width="6.24" height="22.94"/>
    <path class="cls-1" d="M0,136.22v-22.94h12.1c7.59,0,10.79,3.58,10.79,11.09v11.85H0ZM6.24,130.48h10.37v-5.9c0-3.71-1.31-5.52-5.02-5.52h-5.35v11.43Z"/>
  </g>
  <g>
    <path class="cls-1" d="M220.53,49.65c11.79-3.62,20.55-14.01,20.55-28.26v-6.31h-17.4v4.55c0,10.74-4.67,17.86-11.68,18.8l-17.75-23.35h-20.43l19.73,26.04c-11.44,3.85-20.32,13.78-20.32,26.97v10.51h17.4v-8.76c0-10.74,4.32-16.93,11.21-17.86l20.2,26.62h20.43l-21.95-28.96Z"/>
    <rect class="cls-1" x="28.62" y="15.1" width="17.28" height="63.52"/>
    <rect class="cls-1" x="0" y="15.1" width="17.28" height="81.38"/>
    <rect class="cls-1" x="147.2" y="15.1" width="17.28" height="40.4"/>
    <rect class="cls-1" x="118.58" y="15.1" width="17.28" height="40.4"/>
    <path class="cls-1" d="M111.12,15.09h-37.88V0h-17.28v29.95s36.25-.1,36.24,0c-1,11.8-19.85,25.69-19.85,48.51h17.89c0-19.38,21.96-36.12,20.88-63.36Z"/>
  </g>
</svg>