<?xml version="1.0" encoding="UTF-8" standalone="no"?>
<!-- Created with Inkscape (http://www.inkscape.org/) -->

<svg
   width="229.10555mm"
   height="68.394203mm"
   viewBox="0 0 229.10555 68.394203"
   version="1.1"
   id="svg5"
   xml:space="preserve"
   inkscape:version="1.2.2 (b0a8486541, 2022-12-01)"
   sodipodi:docname="Menora.svg"
   xmlns:inkscape="http://www.inkscape.org/namespaces/inkscape"
   xmlns:sodipodi="http://sodipodi.sourceforge.net/DTD/sodipodi-0.dtd"
   xmlns="http://www.w3.org/2000/svg"
   xmlns:svg="http://www.w3.org/2000/svg"><sodipodi:namedview
     id="namedview7"
     pagecolor="#ffffff"
     bordercolor="#000000"
     borderopacity="0.25"
     inkscape:showpageshadow="2"
     inkscape:pageopacity="0.0"
     inkscape:pagecheckerboard="0"
     inkscape:deskcolor="#d1d1d1"
     inkscape:document-units="mm"
     showgrid="false"
     inkscape:zoom="0.40378396"
     inkscape:cx="489.12294"
     inkscape:cy="-299.6652"
     inkscape:window-width="1600"
     inkscape:window-height="821"
     inkscape:window-x="0"
     inkscape:window-y="0"
     inkscape:window-maximized="1"
     inkscape:current-layer="layer1" /><defs
     id="defs2"><linearGradient
       id="b"
       x1="12.502616"
       x2="22.034231"
       y1="37.066448"
       y2="18.677004"
       gradientTransform="scale(1.164208,0.85895306)"
       gradientUnits="userSpaceOnUse"><stop
         offset="100%"
         stop-color="#ffffff"
         id="stop189" /></linearGradient><path
       id="a"
       d="m 35.355,2.124 -9.447,12.947 c -3.048,3.943 -5.845,7.07 -8.654,8.777 C 12.229,26.9 7.332,26.375 4.518,23.695 0.983,20.328 0.803,15.481 3.748,10.051 l -0.84,0.21 C -5.22,23.468 6.065,34.885 17.796,31.105 22.499,29.589 24.855,27.601 29.932,20.701 33.216,16.236 42.964,0.25 42.966,0.247 Z m -7.36,1.847 C 22.212,11.107 17.899,17.828 11.49,19.711 6.264,21.245 2.442,16.117 6.31,9.409 L 5.622,9.573 C 0.202,18.32 5.666,25.129 12.3,24.076 20.256,22.814 25.87,12.171 33.125,2.684 Z m -6.43,1.61 C 17.833,10.105 14.669,14.382 11.168,15.194 7.806,16.047 6.127,13.037 8.506,8.859 L 8.053,8.971 c -3.547,5.745 -0.773,10.188 3.621,8.918 4.988,-1.444 9.342,-7.333 14.04,-13.346 L 21.565,5.58 Z m -8.6,2.16 c 0,0 -1.597,4.938 -1.636,5.069 -0.13,0.398 0.514,1.082 1.255,0.143 1.168,-1.48 3.84,-6.091 3.84,-6.091 L 12.965,7.74 Z" /></defs><g
     inkscape:label="Layer 1"
     inkscape:groupmode="layer"
     id="layer1"
     transform="translate(0,-228.6058)"><path
       id="path197"
       style="fill:#343546;fill-opacity:1;stroke-width:2.15404"
       d="m 229.10554,228.6058 -16.39468,4.04328 -20.34931,27.88879 c -6.56542,8.49329 -12.59001,15.22856 -18.64063,18.90547 -10.82393,6.57405 -21.37287,5.44318 -27.43428,-0.32958 -7.61442,-7.25257 -8.00224,-17.69285 -1.65865,-29.38915 l -1.80935,0.45193 c -17.50781,28.44807 6.80053,53.04126 32.06927,44.89909 10.13033,-3.26548 15.20567,-7.54803 26.14161,-22.41074 7.0738,-9.61768 28.07171,-44.05264 28.07602,-44.05909 z m -21.19826,5.24988 -11.0499,2.77182 c -12.45666,15.37106 -21.74752,29.84883 -35.55259,33.90485 -11.25688,3.30426 -19.48942,-7.74165 -11.15768,-22.19078 l -1.48234,0.35324 c -11.67476,18.84118 0.0949,33.50775 14.38462,31.23957 17.13735,-2.71836 29.23052,-25.64357 44.85789,-46.0787 z m -15.9637,4.00416 -8.93661,2.23382 v 0.002 c -8.0388,9.74478 -14.85482,18.95803 -22.39603,20.70709 -7.24179,1.8374 -10.85834,-4.64643 -5.73394,-13.64591 l -0.97584,0.24105 c -7.64031,12.37481 -1.66496,21.94562 7.79978,19.21003 10.74422,-3.11039 20.12307,-15.79597 30.24264,-28.74804 z m -20.01091,4.99522 -7.45096,1.89149 v 0.002 c 0,0 -3.43989,10.63689 -3.52391,10.91907 -0.28002,0.8573 1.10704,2.33038 2.70316,0.30775 2.5159,-3.18794 8.27171,-13.12016 8.27171,-13.12016 z M 64.26544,247.0874 c -2.91653,0 -5.31628,0.45948 -7.19458,1.37923 v 3.76398 c 1.50102,-0.78177 3.17211,-1.1887 4.8704,-1.17496 2.11525,0 3.82141,0.41746 5.12028,1.25539 1.43458,0.93054 2.21862,2.31569 2.34355,4.15094 0.0108,0.17444 0.0167,0.35128 0.0146,0.52574 l 0.007,11.07614 h 5.96285 l 0.011,-12.29119 c 0,-0.2154 -0.0112,-0.43088 -0.0264,-0.64628 -0.17232,-2.53958 -1.31362,-4.52963 -3.41809,-5.97498 -1.99463,-1.3764 -4.56038,-2.06401 -7.69017,-2.06401 z m 28.72621,0 c -1.38718,0 -2.55877,0.25009 -3.51299,0.74768 v 3.44139 c 0.51772,-0.14234 1.01464,-0.22082 1.48626,-0.22082 2.21864,0 3.39478,0.98002 3.52833,2.93587 0.009,0.12284 0.0109,0.24333 0.007,0.36612 l 0.006,9.65657 H 87.7701 v 4.04965 h 12.71751 l -0.011,-14.05309 c 0.006,-0.28218 0.002,-0.55135 -0.0146,-0.80983 -0.28002,-4.0754 -2.77014,-6.11354 -7.4702,-6.11354 z m -49.12984,0.002 c -2.94653,4e-5 -5.7506,0.48438 -8.41932,1.45794 v 3.85496 c 2.18509,-0.89352 4.27045,-1.34539 6.25319,-1.34539 2.15402,0 3.89886,0.41808 5.23651,1.25601 1.5315,0.95852 2.36066,2.35615 2.48774,4.19139 0.009,0.16155 0.0131,0.32312 0.011,0.48467 l -0.0154,11.07614 h 5.96223 l 0.011,-12.29046 c 0,-0.20248 -0.008,-0.40543 -0.0211,-0.6079 -0.17232,-2.52235 -1.37249,-4.52322 -3.59759,-5.99227 h -0.002 c -2.10254,-1.38928 -4.73934,-2.08504 -7.90559,-2.08509 z m 73.59943,0.0602 c -1.6629,0 -3.14913,0.39881 -4.4523,1.19581 -1.12872,0.70005 -1.94531,1.59404 -2.45366,2.67104 v -3.13843 h -0.55149 -5.4295 l -0.003,20.18514 h 5.9821 l 0.002,-10.97229 c -0.009,-1.6866 0.53896,-3.10412 1.65044,-4.25221 1.02314,-1.06624 2.18178,-1.59845 3.47633,-1.59845 1.3075,0 2.43629,0.49987 3.39052,1.49718 0.95207,0.99945 1.4818,2.28316 1.5895,3.84698 0.14648,2.13248 -0.30377,3.95473 -1.34845,5.46469 -1.14165,1.63489 -2.72474,2.4512 -4.74522,2.4512 -0.26406,0 -0.52568,-0.0203 -0.78605,-0.0509 v 3.61378 c 0.61821,0.14862 1.39338,0.2218 2.33252,0.2218 h 0.41613 c 3.19657,0 5.74476,-1.03365 7.65106,-3.10581 1.90414,-2.07217 2.8583,-4.80343 2.86476,-8.18956 -0.005,-0.2704 -0.0163,-0.54063 -0.0347,-0.81044 -0.18524,-2.68605 -1.18426,-4.87189 -3.00442,-6.55849 -1.78782,-1.64782 -3.97014,-2.47106 -6.54634,-2.47106 z m -38.12836,0.72584 -0.007,20.18772 h 5.94298 l 0.007,-20.18772 z m -43.86035,8.91173 v 11.2782 h 5.94041 l 0.002,-11.2782 z m 53.11978,18.52844 c -2.73521,7e-5 -5.02038,0.3404 -6.86402,1.01238 v 3.85385 c 1.26991,-0.5971 2.78168,-0.89615 4.5407,-0.89615 2.0054,0 3.65755,0.48722 4.95427,1.45868 1.29241,0.97146 1.99698,2.30691 2.11329,4.00858 0.0108,0.16156 0.0151,0.31631 0.013,0.46494 l 0.006,7.02452 H 80.73674 v 4.04966 h 21.2522 v -4.04965 h -2.67116 -0.002 l -0.009,-8.23897 c 0.009,-0.23642 0.005,-0.47314 -0.011,-0.70917 -0.17231,-2.53742 -1.24492,-4.51473 -3.218,-5.93207 -1.90182,-1.3612 -4.39573,-2.04646 -7.48418,-2.04659 z m -46.40963,0.002 -4.7e-4,1.2e-4 c -1.36134,0 -3.04391,0.20852 -5.04929,0.62641 -1.6909,0.3511 -2.90797,0.68296 -3.65326,0.99314 l 0.0152,19.35421 h 5.96224 l 0.007,-16.7023 c 0.66581,-0.0929 1.33718,-0.14047 2.00944,-0.14235 4.18526,0 6.40206,1.79653 6.64763,5.38511 0.0129,0.20464 0.0216,0.41358 0.0238,0.62899 l 0.008,10.83055 h 5.96028 v -11.884 c -0.002,-0.2154 -0.0106,-0.43099 -0.0258,-0.64639 -0.1831,-2.68821 -1.45583,-4.79239 -3.81878,-6.31743 -2.16907,-1.41733 -4.86601,-2.12603 -8.0862,-2.12604 z m -33.44457,1.2e-4 c -1.96649,3e-5 -3.93505,0.18283 -5.90155,0.54684 C 1.70413,276.07143 0.7733,276.30845 0,276.56773 l 0.0147,19.72376 h 21.4669 l -0.007,-12.2885 c -9.5e-4,-0.19638 -0.008,-0.3927 -0.0211,-0.58864 -0.17663,-2.57621 -1.43691,-4.58126 -3.77833,-6.01153 -2.2724,-1.3893 -5.25152,-2.08504 -8.93685,-2.08509 z m 108.72558,0.0622 c -1.66291,0 -3.14911,0.39881 -4.4523,1.1958 -1.1287,0.70005 -1.94532,1.59404 -2.45365,2.67104 v -3.13842 h -0.5515 -5.4295 l -0.003,20.18513 h 5.9821 l 0.002,-10.97229 c -0.009,-1.68659 0.53897,-3.10412 1.65044,-4.2522 1.02316,-1.06625 2.18177,-1.59846 3.47634,-1.59846 1.30748,0 2.4363,0.49988 3.39051,1.49718 0.95209,0.99946 1.48181,2.28317 1.5895,3.84699 0.14648,2.13247 -0.30376,3.95472 -1.34845,5.46469 -1.14163,1.63489 -2.72475,2.4512 -4.74522,2.4512 -0.26406,0 -0.52568,-0.0203 -0.78605,-0.0509 v 3.6138 c 0.61821,0.14862 1.39337,0.2218 2.33252,0.2218 h 0.41613 c 3.19656,0 5.74475,-1.03365 7.65106,-3.10581 1.90414,-2.07216 2.8583,-4.80344 2.86476,-8.18956 -0.005,-0.27039 -0.0163,-0.54063 -0.0347,-0.81044 -0.18524,-2.68605 -1.18425,-4.87188 -3.00441,-6.55849 -1.78783,-1.64781 -3.97015,-2.47106 -6.54635,-2.47106 z m -47.76262,0.46346 9.5e-4,1.2e-4 c -0.51481,0 -1.24932,0.18281 -2.19924,0.54684 v 3.33447 c 0.10863,-0.005 0.21736,-0.0132 0.32577,-0.0132 1.32041,0 2.4039,0.40934 3.25258,1.23431 0.97576,0.93055 1.52477,2.30742 1.6497,4.12972 0.0172,0.25848 0.0278,0.51876 0.0321,0.78801 -0.002,2.06786 -0.49083,3.70525 -1.46445,4.92227 -0.90037,1.10501 -2.01868,1.65865 -3.35201,1.65865 -1.33333,0 -2.44698,-0.46526 -3.34306,-1.39578 -0.89607,-0.93055 -1.39801,-2.18034 -1.50355,-3.74632 -0.0139,-0.18842 -0.021,-0.37728 -0.0211,-0.56621 l 0.006,-10.63046 h -5.98219 l 0.007,9.92202 c 0,0.39204 0.0129,0.76888 0.0365,1.13291 0.22617,3.29349 1.43456,5.79822 3.62519,7.51067 1.98169,1.55294 4.57516,2.32859 7.78249,2.32859 3.05223,0 5.57471,-1.03393 7.57148,-3.09747 1.99892,-2.0657 2.99827,-4.71721 3.00257,-7.95684 l -0.007,-0.36611 c 0.007,-0.30802 -2.3e-4,-0.61821 -0.0218,-0.9284 -0.19602,-2.8476 -1.25367,-5.06849 -3.16859,-6.66246 -1.71029,-1.42812 -3.78687,-2.14529 -6.22952,-2.14529 z m -39.61831,0.26214 -5.9409,2.3e-4 -0.002,0.002 0.002,9.43219 c 0,0 5.95193,3e-5 5.95193,0 z m -21.46089,3.25919 h 1.3e-4 7.1e-4 c 1.75337,0 3.29318,0.40078 4.61574,1.19777 1.4195,0.87668 2.17558,2.00319 2.27035,3.3796 l 0.0218,0.28273 h -0.002 l -0.009,7.97806 H 5.99251 l -0.0191,-12.45022 c 0.8584,-0.26204 1.7515,-0.39282 2.64897,-0.38794 z"
       sodipodi:nodetypes="cccccccccccccccccccccccccccccccccscccccccccccsssccsccccccccssccscccccccccssscccccccccscccsccssccccssccccccccccsccscccccccccccccssccccccccccccccccscccccccssscccccccccscccsccssccccssccccsccccsccccccccsccccccccccccscscccccccs" /></g></svg>
