<?xml version="1.0" encoding="UTF-8"?>
<svg xmlns="http://www.w3.org/2000/svg" version="1.1" viewBox="0 0 1239.42 444.13">
  <defs>
    <style>
      .cls-1 {
        fill: #3c65e3;
      }

      .cls-2 {
        fill: #020140;
      }
    </style>
  </defs>
  <!-- Generator: Adobe Illustrator 28.6.0, SVG Export Plug-In . SVG Version: 1.2.0 Build 709)  -->
  <g>
    <g id="Layer_1">
      <g>
        <g>
          <polygon class="cls-2" points="1122.41 48.35 1136.09 22.2 1109.95 22.2 1109.95 34.43 1094.65 34.43 1094.65 22.2 1068.62 22.2 1068.62 34.43 1053.33 34.43 1053.33 22.2 1027.3 22.2 1027.3 34.43 1012 34.43 1012 22.2 985.86 22.2 999.54 48.35 1122.41 48.35"/>
          <polygon class="cls-2" points="1131.89 357.27 990.36 357.27 944.79 420.76 1177.46 420.76 1131.89 357.27"/>
          <path class="cls-2" d="M1048.11,346.28v-25.58h0v-.45h.02c.24-6.98,5.96-12.57,12.99-12.57s12.75,5.59,12.99,12.57h.02v.45h0v25.58h52.95v-63.49h-131.94v63.49h52.95Z"/>
          <path class="cls-2" d="M1061.04,303.39h0c-.41,0-.82.02-1.22.07.41-.04.84-.06,1.26-.06-.01,0-.03,0-.04,0Z"/>
          <polygon class="cls-2" points="1127.38 271.8 1160.57 208.3 1130.77 208.3 1130.77 220.54 1115.47 220.54 1115.47 208.3 1089.44 208.3 1089.44 220.54 1074.14 220.54 1074.14 208.3 1048.11 208.3 1048.11 220.54 1032.81 220.54 1032.81 208.3 1006.78 208.3 1006.78 220.54 991.48 220.54 991.48 208.3 961.68 208.3 994.88 271.8 1127.38 271.8"/>
          <polygon class="cls-2" points="1113.23 197.31 1113.23 159.97 1126.9 133.82 995.05 133.82 1008.72 159.97 1008.72 197.31 1113.23 197.31"/>
          <rect class="cls-2" x="1015.79" y="59.34" width="90.38" height="63.49"/>
          <path class="cls-2" d="M1048.11,320.25v.45c0-.15.02-.3.02-.45h-.02Z"/>
          <path class="cls-2" d="M1074.14,320.25h-.02c0,.15.02.3.02.45v-.45Z"/>
        </g>
        <g>
          <path class="cls-2" d="M781.21,119.97c-17.32,0-34.9,6.93-49.82,20.51l-12.85-17.58h-50.66l37.94,55.68c-4,9.86-6.13,18.12-7.99,27.44l-11.94,76.73h41.6l12.43-71.4c5.06-29.57,20.51-49.29,41.29-49.29,21.85-.27,38.1,16.52,38.1,41.56s-18.38,42.36-42.09,42.36c-4.26,0-14.51-1.31-19.45-2.83l-.27,40.13c6.39,1.45,13.85,2.39,19.45,2.39,50.62,0,84.45-33.03,84.45-82.59s-32.24-83.12-80.19-83.12Z"/>
          <path class="cls-2" d="M374.31,122.9h-98.37v-37.3h-41.83v79.12h100.17l-48.87,118.02h46.53l50.83-122.55c.53-1.33.8-2.66.8-3.2v-34.1h-9.26Z"/>
          <path class="cls-2" d="M400.09,164.73h94.45l-12.79,13.05c-.27.27-.53,1.07-.53,1.6v103.37h42.63v-118.02s0,0,0,0h25.31v-41.83h-149.07v41.83Z"/>
          <path class="cls-2" d="M636.81,122.9h-66.34v41.83h33.3l9.38,47.91c.79,4.02.82,8.18-.13,12.17-2.03,8.53-7.98,15.85-20.01,15.85h-39.27v42.09h41.24c8.6,0,22.09-6.8,29.24-32.8l10.99,32.8h37.49l-33.4-159.85h-2.49Z"/>
        </g>
        <g>
          <path class="cls-1" d="M62.02,346.6h38.2c18.74,0,26.32,6.58,26.32,26.75v47.21H62.02v-73.97ZM111.81,406.4v-33.76c0-9.16-3.72-11.87-11.59-11.87h-23.46v45.64h35.05Z"/>
          <path class="cls-1" d="M151.73,361.34h-11.87v-14.74h26.61v47.36h-14.74v-32.62Z"/>
          <path class="cls-1" d="M184.63,384.66c0-8.15,1.72-16.17,4.86-23.32h-8.73v-14.74h36.05c25.9,0,36.63,11.87,36.63,36.48,0,23.18-13.73,38.63-34.91,38.63s-33.91-15.45-33.91-37.06ZM218.97,407.69c12.3,0,19.74-9.87,19.74-24.32,0-13.59-4.43-22.03-21.46-22.03h-14.31c-2.86,6.44-4.44,12.88-4.44,20.46.14,16.88,8.3,25.9,20.46,25.9Z"/>
          <path class="cls-1" d="M264.04,420.57l.57-14.59c2.58.29,4.86.43,6.58.43,10.44,0,12.16-5.29,12.16-12.73v-32.33h-16.17v-14.74h30.76v48.64c0,17.31-7.58,25.75-25.32,25.75-2.72,0-5.44,0-8.58-.43Z"/>
          <path class="cls-1" d="M311.25,420.57l.57-14.59c2.58.29,4.86.43,6.58.43,10.44,0,12.16-5.29,12.16-12.73v-32.33h-16.17v-14.74h30.76v48.64c0,17.31-7.58,25.75-25.32,25.75-2.72,0-5.44,0-8.58-.43Z"/>
          <path class="cls-1" d="M370.34,361.34h-11.87v-14.74h26.61v47.36h-14.74v-32.62Z"/>
          <path class="cls-1" d="M403.39,420.42l.14-14.74c6.87.72,12.45,1,19.17,1,23.18,0,29.19-9.87,29.19-23.61,0-14.88-5.29-22.61-22.75-22.61h-12.02l-.57,6.01c-1.14,10.02,2.72,12.73,8.73,13.16,2,.14,3.72.14,5.58-.14l1,10.59c-3.29.86-6.29,1.29-9.3,1.14-11.73-.14-22.32-4.86-20.03-27.33l2-17.31h27.47c24.32,0,34.77,12.73,34.77,36.63,0,22.61-12.16,38.06-43.06,38.06-7.15,0-13.02-.14-20.32-.86Z"/>
          <path class="cls-1" d="M489.53,361.34h-12.16v-14.74h26.9v73.97h-14.74v-59.23Z"/>
          <path class="cls-1" d="M554.63,346.6h38.06c18.74,0,26.32,6.58,26.32,26.75v47.21h-14.74v-47.21c0-9.3-3.58-12.02-11.59-12.02h-23.32v59.23h-14.74v-73.97Z"/>
          <path class="cls-1" d="M644.48,361.34h-12.16v-14.74h26.9v73.97h-14.74v-59.23Z"/>
          <path class="cls-1" d="M678.1,381.51v-34.91h14.74l.14,34.91c0,15.88,7.58,25.47,20.03,25.47s20.03-9.59,20.03-25.32c0-13.73-4.01-21.75-13.31-21.75-3.72,0-7.73,1.29-10.73,3.58l-4.15-11.02c4.58-3.86,12.02-7.01,19.6-7.01,16.17,0,23.32,13.31,23.32,34.34,0,23.61-10.44,41.92-35.05,41.92s-34.62-18.31-34.62-40.2Z"/>
          <path class="cls-1" d="M770.38,361.34h-11.87v-14.74h26.61v47.36h-14.74v-32.62Z"/>
          <path class="cls-1" d="M798.42,405.83h40.2v-31.33c0-10.44-3.58-13.16-12.59-13.16h-26.04v-14.74h26.04c20.03,0,27.33,6.44,27.33,27.9v31.33h7.87v14.74h-62.81v-14.74Z"/>
        </g>
      </g>
    </g>
  </g>
</svg>