<?xml version="1.0" encoding="utf-8"?>
<!-- Generator: Adobe Illustrator 15.0.0, SVG Export Plug-In . SVG Version: 6.00 Build 0)  -->
<!DOCTYPE svg PUBLIC "-//W3C//DTD SVG 1.1//EN" "http://www.w3.org/Graphics/SVG/1.1/DTD/svg11.dtd">
<svg version="1.1" id="Layer_1" xmlns="http://www.w3.org/2000/svg" xmlns:xlink="http://www.w3.org/1999/xlink" x="0px" y="0px"
	 width="207.125px" height="92.047px" viewBox="0 0 207.125 92.047" enable-background="new 0 0 207.125 92.047"
	 xml:space="preserve">
<g>
	<g>
		<path fill="#004582" d="M53.022,42.468c-0.297,7.878-3.715,14.45,1.018,27.331c0,0-11.962-3.023-14.159-26.718
			c-0.304-3.273-0.697-7.115-1.494-9.761c-1.272-4.228-2.698-6.962-5.251-10.4C27.259,15,18.381,9.513,8.315,8.027
			C5.657,7.635,2.92,7.52,0.13,7.714C-0.671,7.771,2.388,6.475,4.98,6.005c2.055-0.372,4.126-0.627,5.982-0.757
			C27.347,4.103,42.997,13.709,50,27.483C52.338,32.081,53.257,36.288,53.022,42.468z"/>
		<path fill="#EF8813" d="M56.406,49.425c0.029-1.445,0.435-3.059,0.581-4.631c0.286-3.298,1.671-6.753,0.519-12.578
			c-0.86-4.354-2.206-7.785-2.682-9.537c-1.389-5.113-4.895-11.483-7.446-15.078c-2.111-2.975-5.04-5.244-6.826-6.417
			c-1.433-0.94-0.192-1.246,0.642-1.173c3.574,0.314,7.918,1.56,12.299,4.797c7.307,5.396,13.088,4.12,10.898,6.842
			c-1.699,2.111-7.195,1.769-7.195,1.769s5.336,7.523,7.856,13.549c9.101-13.029,24.207-21.552,41.305-21.552
			c9.671,0,18.703,2.726,26.373,7.451c-5.835-1.063-9.044-1.211-13.553-1.211c-30.234,0-53.855,25.697-53.855,55.934
			c0,9.413,1.952,16.722,6.137,24.458c-9.521-9.159-15.446-22.031-15.446-36.287C56.012,53.615,56.146,51.5,56.406,49.425z"/>
	</g>
	<g>
		<g>
			<path fill-rule="evenodd" clip-rule="evenodd" fill="#004582" d="M101.653,70.242c0-9.05-6.258-11.964-12.377-11.964H77.728
				v10.686c0,0.46,0,1.278,0,1.278c0,7.771,5.613,12.219,12.009,12.219C94.43,82.461,101.653,79.599,101.653,70.242z M94.521,70.242
				c0,5.112-1.656,7.822-4.785,7.822c-1.473,0-4.877-0.665-4.877-7.822c0,0,0-1.074,0-1.278v-6.596h4.371
				C93.463,62.368,94.521,65.59,94.521,70.242z"/>
			<polygon fill-rule="evenodd" clip-rule="evenodd" fill="#004582" points="138.17,70.345 138.17,58.432 131.498,58.432 
				131.498,74.945 132.327,74.945 			"/>
			<path fill-rule="evenodd" clip-rule="evenodd" fill="#004582" d="M154.314,82.001V65.13c0-5.164-3.635-7.157-8.973-7.157
				c-0.874,0-1.702,0.051-2.53,0.204v4.856c0.367-0.052,0.782-0.102,1.15-0.102c2.899,0,3.681,1.737,3.681,3.936v10.072h-6.487
				v5.062H154.314z"/>
			<path fill-rule="evenodd" clip-rule="evenodd" fill="#004582" d="M207.125,82.001V67.436c0-5.607-5.326-9.463-11.539-9.463
				c-3.882,0-7.938,0.835-10.271,2.862l1.254,3.883c2.848-1.812,4.234-1.94,6.903-1.94c4.745,0,6.98,3.537,6.98,6.396v12.827
				H207.125z M191.987,82.001v-12.22h-6.672v12.22H191.987z"/>
			<g>
				<path fill-rule="evenodd" clip-rule="evenodd" fill="#004582" d="M112.133,91.423V69.781h-6.673v21.642H112.133z"/>
				<path fill="#004582" d="M120.599,73.217l0.006-4.043c0-2.859-2.236-6.397-6.982-6.397c-2.668,0-4.055,0.13-6.902,1.941
					l-1.254-3.883c2.333-2.027,6.388-2.863,10.271-2.863c6.213,0,11.54,3.855,11.54,9.464v4.096l-0.005,2.979
					c0,5.522-3.911,7.95-10.629,7.95v-5.534C119.541,76.927,120.599,75.72,120.599,73.217z"/>
			</g>
			<path fill="#004582" d="M180.992,70.293c0,7.362-4.831,12.168-12.285,12.168c-1.656,0-5.66,0-9.479-3.118v-4.653
				c3.129,2.506,5.199,3.375,7.868,3.375c4.188,0,7.776-2.432,7.776-7.954v-1.035c0-4.4-2.453-6.707-5.522-6.707
				c-3.551,0-5.263,3.429-3.817,6.081c0.216,0.41,0.383,0.595,0.496,0.993c0.173,0.604-0.216,1.531-0.216,1.531l-1.423,2.718
				c-3.84-1.078-5.853-4.421-5.438-7.897c0.736-5.726,5.016-7.925,10.859-7.821c0.788,0.011,1.545,0.091,2.269,0.233
				c1.156,0.141,3.135,0.305,5.31,0.154c1.602-0.111,3.373-0.387,3.722,0.35c0.389,0.819-0.012,1.345-0.559,1.891
				c-0.289,0.289-0.737,0.68-1.254,1.003c-0.683,0.427-0.438,1.038-0.303,1.278C180.304,64.974,180.992,67.463,180.992,70.293z"/>
		</g>
	</g>
</g>
</svg>
